<svg xmlns="http://www.w3.org/2000/svg" width="200" height="200"><rect width="100%" height="100%" fill="#85522e"/><path fill="#fff" d="M84.258 145.703q2.89.235 5.547.39 2.656.079 5.156.079 16.406 0 23.828-5.39 7.5-5.47 7.5-17.345 0-10.859-6.562-16.171-6.485-5.313-19.844-5.313-3.125 0-7.11.313-3.906.234-8.593.703zm0-50.781q1.015.078 2.265.156h3.75q15.157 0 22.188-5.312 7.11-5.391 7.11-16.875 0-9.766-6.563-14.61-6.563-4.922-19.688-4.922-1.172 0-4.218.235-2.97.156-4.922.234zm-26.25-48.594h40.781q18.516 0 27.578 6.406 9.063 6.407 9.063 19.532 0 9.062-5.86 15.234-5.78 6.094-17.343 9.219 14.062.156 21.875 6.953 7.89 6.719 7.89 18.672 0 15.234-10.781 23.281-10.703 8.047-31.016 8.047H58.008v-6.563l9.062-.78 2.735-2.266V55.938l-2.735-2.266-9.062-.938z" aria-label="B"/></svg>